<?xml version="1.0" encoding="utf-8"?>
<!-- Generator: Adobe Illustrator 23.0.2, SVG Export Plug-In . SVG Version: 6.00 Build 0)  -->
<svg version="1.1" id="Ebene_1" xmlns="http://www.w3.org/2000/svg" xmlns:xlink="http://www.w3.org/1999/xlink" x="0px" y="0px"
	 viewBox="0 0 369.73 85.04" style="enable-background:new 0 0 369.73 85.04;" xml:space="preserve">
<g>
	<g>
		<g>
			<polyline points="0,0.02 18.32,0.02 24.97,47.28 34.66,0.02 52.83,0.02 62.55,47.24 69.6,0 314.87,0.03 314.87,19.77 
				183.22,19.77 183.19,84.93 164.18,84.95 164.17,19.77 83.86,19.78 73.05,84.97 55.11,84.97 43.77,31.35 32.78,85.04 13.91,85.04 
				0,0.02 			"/>
			<path d="M141.29,56.06c0-8.06-0.98-14.6-2.93-19.63c-1.96-5.03-4.81-8.86-8.56-11.52c-3.74-2.65-8.86-3.97-15.33-3.97
				c-7.97,0-14.23,2.96-18.75,8.88c-4.53,5.92-6.79,13.67-6.79,23.23c0,6.73,1.13,12.58,3.39,17.56c2.26,4.98,5.1,8.61,8.54,10.89
				c3.44,2.28,8.16,3.43,14.15,3.43c6.9,0,12.2-1.34,15.89-4.02c3.69-2.67,6.84-7.09,9.46-13.25l-17.11-2.13
				c-1.08,1.85-2.08,3.15-3.02,3.88c-1.54,1.16-3.16,1.74-4.86,1.74c-2.7,0-4.88-1.32-6.56-3.98c-1.19-1.85-1.94-4.66-2.25-8.44
				h34.73V56.06L141.29,56.06z M106.59,49.11c0.28-3.65,0.95-6.4,2-8.24c1.64-2.95,3.84-4.44,6.6-4.44c2.38,0,4.3,0.98,5.77,2.94
				c1.47,1.97,2.36,5.21,2.7,9.74H106.59L106.59,49.11z"/>
			<path d="M259.3,56.06c0-8.06-0.98-14.6-2.94-19.63c-1.96-5.03-4.81-8.86-8.56-11.52c-3.74-2.65-8.85-3.97-15.32-3.97
				c-7.98,0-14.22,2.96-18.75,8.88c-4.52,5.92-6.79,13.67-6.79,23.23c0,6.73,1.13,12.58,3.38,17.56c2.26,4.98,5.1,8.61,8.54,10.89
				c3.44,2.28,8.15,3.43,14.14,3.43c6.9,0,12.2-1.34,15.89-4.02c3.69-2.67,6.85-7.09,9.46-13.25l-17.11-2.13
				c-1.08,1.85-2.08,3.15-3.02,3.88c-1.53,1.16-3.15,1.74-4.85,1.74c-2.7,0-4.88-1.32-6.55-3.98c-1.19-1.85-1.94-4.66-2.26-8.44
				h34.74V56.06L259.3,56.06z M224.59,49.11c0.29-3.65,0.95-6.4,2.01-8.24c1.64-2.95,3.84-4.44,6.6-4.44c2.38,0,4.3,0.98,5.77,2.94
				c1.46,1.97,2.36,5.21,2.7,9.74H224.59L224.59,49.11z"/>
			<path d="M298.92,59.56l16.51,2.56c-0.91,4.64-2.4,8.66-4.47,12.06c-2.07,3.4-4.72,6.04-7.94,7.92
				c-3.23,1.88-7.32,2.82-12.29,2.82c-4.79,0-8.79-0.6-11.98-1.81c-3.2-1.21-5.94-3.17-8.23-5.88c-2.3-2.7-4.1-5.88-5.41-9.53
				c-1.3-3.65-1.96-8.49-1.96-14.52c0-6.3,0.79-11.53,2.39-15.72c1.16-3.07,2.75-5.83,4.77-8.27c2.01-2.44,4.09-4.25,6.22-5.44
				c3.38-1.88,7.71-2.82,12.99-2.82c7.38,0,13.01,1.79,16.89,5.35c3.88,3.57,6.6,8.79,8.16,15.67l-16.34,2.98
				c-0.51-2.62-1.44-4.59-2.78-5.92c-1.35-1.33-3.16-1.99-5.42-1.99c-2.86,0-5.18,1.39-6.94,4.17c-1.77,2.78-2.66,6.99-2.66,12.63
				c0,5.03,0.88,8.84,2.63,11.45c1.76,2.61,3.99,3.92,6.7,3.92c2.26,0,4.16-0.78,5.7-2.36C297,65.24,298.15,62.83,298.92,59.56"/>
			<path d="M321.9,0.02h17.36v31.51c2.35-3.3,4.7-5.66,7.02-7.08c2.32-1.42,5.08-2.13,8.25-2.13c4.71,0,8.42,1.94,11.13,5.83
				c2.71,3.88,4.06,9.84,4.06,17.87v38.93h-17.45V51.25c0-3.84-0.52-6.57-1.57-8.16c-1.05-1.6-2.52-2.4-4.4-2.4
				c-2.1,0-3.79,1.08-5.09,3.23c-1.29,2.15-1.95,6.01-1.95,11.59v29.43H321.9V0.02"/>
			<path d="M359.79,0.1c5.6,0,9.94,4.32,9.94,9.71c0,5.5-4.34,9.77-9.99,9.77c-5.6,0-10.06-4.26-10.06-9.77
				c0-5.38,4.47-9.71,10.06-9.71H359.79L359.79,0.1z M359.67,2.06c-4.28,0-7.49,3.49-7.49,7.75c0,4.32,3.21,7.75,7.61,7.75
				c4.29,0.06,7.44-3.43,7.44-7.75c0-4.26-3.15-7.75-7.5-7.75H359.67L359.67,2.06z M358.19,14.84h-2.26V5.2
				c0.89-0.18,2.14-0.36,3.75-0.36c1.84,0,2.68,0.3,3.39,0.77c0.54,0.41,0.95,1.18,0.95,2.07c0,1.12-0.83,1.95-2.02,2.3v0.13
				c0.95,0.29,1.49,1.07,1.79,2.36c0.3,1.48,0.48,2.07,0.71,2.37h-2.44c-0.3-0.35-0.48-1.18-0.78-2.31
				c-0.18-1.06-0.78-1.54-2.02-1.54h-1.07V14.84L358.19,14.84z M358.24,9.4h1.07c1.25,0,2.26-0.42,2.26-1.42
				c0-0.89-0.65-1.48-2.08-1.48c-0.59,0-1.01,0.06-1.25,0.12V9.4L358.24,9.4z"/>
		</g>
	</g>
</g>
</svg>
